<svg version="1.1" xmlns="http://www.w3.org/2000/svg" viewBox="0 0 32 32" height="1024" width="1024">
    <title>Travel Icon</title>
    <path d="M27,27H5c-1.1,0-2-0.9-2-2V12c0-1.1,0.9-2,2-2h22c1.1,0,2,0.9,2,2v13C29,26.1,28.1,27,27,27z"
          style="fill:none; stroke: var(--svg-color); stroke-width:2; stroke-linecap:round; stroke-linejoin:round; stroke-miterlimit:10"/>
    <line x1="9" y1="10" x2="9" y2="27" 
          style="fill:none; stroke: var(--svg-color); stroke-width:2; stroke-linecap:round; stroke-linejoin:round; stroke-miterlimit:10"/>
    <line x1="23" y1="10" x2="23" y2="27" 
          style="fill:none; stroke: var(--svg-color); stroke-width:2; stroke-linecap:round; stroke-linejoin:round; stroke-miterlimit:10"/>
    <path d="M21,10H11V8c0-1.1,0.9-2,2-2h6c1.1,0,2,0.9,2,2V10z"
          style="fill:none; stroke: var(--svg-color); stroke-width:2; stroke-linecap:round; stroke-linejoin:round; stroke-miterlimit:10"/>
    <line x1="5" y1="28" x2="5" y2="27" 
          style="fill:none; stroke: var(--svg-color); stroke-width:2; stroke-linecap:round; stroke-linejoin:round; stroke-miterlimit:10"/>
    <line x1="27" y1="28" x2="27" y2="27" 
          style="fill:none; stroke: var(--svg-color); stroke-width:2; stroke-linecap:round; stroke-linejoin:round; stroke-miterlimit:10"/>
</svg>
